<?xml version="1.0" encoding="iso-8859-1"?>
<!-- Generator: Adobe Illustrator 19.0.0, SVG Export Plug-In . SVG Version: 6.00 Build 0)  -->
<svg version="1.1" id="Capa_1" xmlns="http://www.w3.org/2000/svg" xmlns:xlink="http://www.w3.org/1999/xlink" x="0px" y="0px"
	 viewBox="0 0 512 512" style="enable-background:new 0 0 512 512;" xml:space="preserve">
<path style="fill:#FF507E;" d="M466,211H46c-24.901,0-46,20.099-46,45v211c0,24.899,21.099,45,46,45h420c24.901,0,46-20.101,46-45
	V256C512,231.099,490.901,211,466,211z"/>
<path style="fill:#F40F78;" d="M512,256v211c0,24.899-21.099,45-46,45H256V211h210C490.901,211,512,231.099,512,256z"/>
<path style="fill:#E1E4FB;" d="M436,271H76c-8.401,0-15,6.599-15,15v151c0,8.399,6.599,15,15,15h360c8.401,0,15-6.601,15-15V286
	C451,277.599,444.401,271,436,271z"/>
<g>
	<path style="fill:#C5C9F7;" d="M451,286v151c0,8.399-6.599,15-15,15H256V271h180C444.401,271,451,277.599,451,286z"/>
	<path style="fill:#C5C9F7;" d="M91,301v121h330V301H91z"/>
</g>
<rect x="256" y="301" style="fill:#A8AFF1;" width="165" height="121"/>
<path style="fill:#E1E4FB;" d="M196,452c-8.291,0-15-6.709-15-15V286c0-8.291,6.709-15,15-15s15,6.709,15,15v151
	C211,445.291,204.291,452,196,452z"/>
<path style="fill:#C5C9F7;" d="M316,452c-8.291,0-15-6.709-15-15V286c0-8.291,6.709-15,15-15s15,6.709,15,15v151
	C331,445.291,324.291,452,316,452z"/>
<path style="fill:#495A79;" d="M136,392c-8.291,0-15-6.709-15-15v-31c0-8.291,6.709-15,15-15s15,6.709,15,15v31
	C151,385.291,144.291,392,136,392z"/>
<path style="fill:#42516D;" d="M376,392c-8.291,0-15-6.709-15-15v-31c0-8.291,6.709-15,15-15s15,6.709,15,15v31
	C391,385.291,384.291,392,376,392z"/>
<path style="fill:#FFDA2D;" d="M342.1,61.899c-1.8-5.4-6.301-9.3-11.7-10.199l-41.1-6.901L269.801,7.5C267.1,2.401,261.4,0,256,0
	c-5.099,0.3-10.201,2.701-12.9,7.5l-19.501,37.299L182.5,51.7c-5.4,0.899-9.901,4.799-11.7,10.199c-1.5,5.4-0.298,11.1,3.602,15
	l29.099,30l-6,41.4c-0.599,5.4,1.5,11.1,6,14.401c4.501,2.999,10.499,3.6,15.601,1.199l36.898-18l0.601-0.298l37.5,18.3
	c4.799,2.401,10.8,1.8,15.3-1.199c4.499-3.301,6.899-9.001,5.999-14.401l-5.999-41.4l29.099-30
	C342.4,72.999,343.9,67.299,342.1,61.899z"/>
<path style="fill:#FFBC33;" d="M338.5,76.899l-29.099,30l5.999,41.4c0.901,5.4-1.5,11.1-5.999,14.401
	c-4.501,2.999-10.501,3.6-15.3,1.199l-37.5-18.3l-0.601,0.3V0c5.4,0,11.1,2.401,13.801,7.5L289.3,44.799l41.1,6.901
	c5.4,0.899,9.901,4.799,11.7,10.199S342.4,72.999,338.5,76.899z"/>
<path style="fill:#FFDA2D;" d="M508.7,96.7c-1.5-5.101-5.4-8.701-10.501-9.901l-31.899-8.1L449.2,51.7
	c-2.701-4.501-8.101-6.601-13.2-6.601c-4.799,0.3-9.6,2.401-12.299,6.601l-17.1,26.999L375.7,86.8
	c-4.799,1.199-9,4.799-10.499,9.901c-1.5,4.799-0.601,10.199,2.699,14.099l20.4,24.6l-2.098,31.8
	c-0.3,5.099,2.098,10.201,6.299,13.2s9.6,3.6,14.401,1.8l29.099-11.4l0.601-0.3l29.7,11.7c4.799,1.8,11.199,1.199,15.399-1.8
	c3.9-2.999,6.301-8.101,6-13.2l-2.1-31.8l20.4-24.6C509.299,106.899,510.5,101.499,508.7,96.7z"/>
<path style="fill:#FFBC33;" d="M506,110.799l-20.4,24.6l2.1,31.8c0.3,5.099-2.1,10.201-6,13.2c-4.2,2.999-10.6,3.6-15.399,1.8
	l-29.7-11.7l-0.601,0.3v-125.7c5.099,0,10.499,2.1,13.2,6.601l17.1,26.999l31.899,8.101c5.101,1.199,9.001,4.799,10.501,9.901
	C510.5,101.499,509.299,106.899,506,110.799z"/>
<path style="fill:#FFDA2D;" d="M147.7,96.7c-1.5-5.101-5.4-8.701-10.501-9.901l-30.899-8.1L89.2,51.7
	c-2.701-4.501-8.101-6.601-13.2-6.601c-4.799,0.3-9.6,2.401-12.299,6.601l-17.1,26.999L14.7,86.8c-4.799,1.199-9,4.799-10.5,9.9
	c-1.5,4.799-0.601,10.199,2.699,14.099l21.4,24.6l-2.098,31.8c-0.3,5.099,2.098,10.201,6.299,13.2s9.6,3.6,14.401,1.8L76,170.799
	l0.601-0.3l29.7,11.7c4.799,1.8,10.199,1.199,14.399-1.8c3.9-2.999,6.301-8.101,6-13.2l-2.1-31.8l20.4-24.6
	C148.299,106.899,149.5,101.499,147.7,96.7z"/>
<path style="fill:#FFBC33;" d="M145,110.799l-20.4,24.6l2.1,31.8c0.3,5.099-2.1,10.201-6,13.2c-4.2,2.999-9.6,3.6-14.399,1.8
	l-29.7-11.7l-0.601,0.3v-125.7c5.099,0,10.499,2.1,13.2,6.601l17.1,26.999l30.899,8.101c5.101,1.199,9.001,4.799,10.501,9.901
	C149.5,101.499,148.299,106.899,145,110.799z"/>
<path style="fill:#495A79;" d="M271,346v31c0,8.399-6.599,15-15,15s-15-6.601-15-15v-31c0-8.401,6.599-15,15-15S271,337.599,271,346
	z"/>
<path style="fill:#42516D;" d="M271,346v31c0,8.399-6.599,15-15,15v-61C264.401,331,271,337.599,271,346z"/>
<g>
</g>
<g>
</g>
<g>
</g>
<g>
</g>
<g>
</g>
<g>
</g>
<g>
</g>
<g>
</g>
<g>
</g>
<g>
</g>
<g>
</g>
<g>
</g>
<g>
</g>
<g>
</g>
<g>
</g>
</svg>
