<?xml version="1.0" encoding="UTF-8" standalone="no"?>
<svg
   xmlns:dc="http://purl.org/dc/elements/1.1/"
   xmlns:cc="http://creativecommons.org/ns#"
   xmlns:rdf="http://www.w3.org/1999/02/22-rdf-syntax-ns#"
   xmlns:svg="http://www.w3.org/2000/svg"
   xmlns="http://www.w3.org/2000/svg"
   version="1.1"
   id="svg6443"
   viewBox="0 0 444.55436 399.45589"
   height="112.73533mm"
   width="125.46312mm">
  <defs
     id="defs6445">
    <clipPath
       id="clipPath344"
       clipPathUnits="userSpaceOnUse">
      <path
         id="path346"
         d="m 5664.56,6917.74 c -56.02,57.24 -130.98,88.76 -211.08,88.76 -77.63,0 -150.99,-29.91 -206.48,-84.24 l -1271.31,-1244.2 -495.17,483.78 c -55.49,54.23 -128.77,84.09 -206.39,84.09 -80.19,0 -155.19,-31.56 -211.2,-88.88 -55.13,-56.43 -85.02,-130.91 -84.1,-209.79 0.89,-78.89 32.48,-152.68 88.91,-207.82 l 701.67,-685.69 c 55.5,-54.23 128.8,-84.13 206.4,-84.13 77.67,0 151.01,29.95 206.52,84.27 l 1477.7,1446.25 c 56.41,55.16 87.96,128.98 88.8,207.87 0.85,78.86 -29.08,153.35 -84.27,209.73 z" />
    </clipPath>
    <clipPath
       id="clipPath326"
       clipPathUnits="userSpaceOnUse">
      <path
         id="path328"
         d="m 4885.87,4961.08 -459.85,0 -78.08,-76.38 c -99.99,-97.91 -232.16,-151.84 -372.13,-151.84 -139.84,0 -271.91,53.83 -371.91,151.57 l -78.4,76.65 -453.33,0 0,442.99 -169.91,166.03 c -101.67,99.33 -158.54,232.3 -160.16,374.44 -1.65,142.13 52.16,276.38 151.51,378.02 50.93,52.1 110.95,92.45 178.56,120.1 l 0,332.12 1685.63,0 323.58,316.69 c 15.91,15.58 33.15,30.32 51.62,44.12 l -2421.66,0 0,-2535.3 2535.33,0 0,1163.97 -360.8,-353.13 0,-450.05 z" />
    </clipPath>
  </defs>
  <metadata
     id="metadata6448">
    <rdf:RDF>
      <cc:Work
         rdf:about="">
        <dc:format>image/svg+xml</dc:format>
        <dc:type
           rdf:resource="http://purl.org/dc/dcmitype/StillImage" />
        <dc:title></dc:title>
      </cc:Work>
    </rdf:RDF>
  </metadata>
  <g
     transform="translate(0.13431624,-6.9199308)"
     id="layer1">
    <g
       style="fill:#00ff00"
       transform="matrix(0.11885893,0.03869825,0.03869825,-0.11885893,-500.42446,750.12441)"
       id="g322">
      <g
         style="fill:#00ff00"
         id="g324"
         clip-path="url(#clipPath326)">
        <path
           d="m 4885.87,4961.08 -459.85,0 -78.08,-76.38 c -99.99,-97.91 -232.16,-151.84 -372.13,-151.84 -139.84,0 -271.91,53.83 -371.91,151.57 l -78.4,76.65 -453.33,0 0,442.99 -169.91,166.03 c -101.67,99.33 -158.54,232.3 -160.16,374.44 -1.65,142.13 52.16,276.38 151.51,378.02 50.93,52.1 110.95,92.45 178.56,120.1 l 0,332.12 1685.63,0 323.58,316.69 c 15.91,15.58 33.15,30.32 51.62,44.12 l -2421.66,0 0,-2535.3 2535.33,0 0,1163.97 -360.8,-353.13 0,-450.05"
           style="fill:#00ff00;fill-opacity:1;fill-rule:nonzero;stroke:none"
           id="path338" />
      </g>
    </g>
    <g
       style="fill:#00ff00"
       transform="matrix(0.11885893,0.03869825,0.03869825,-0.11885893,-500.42446,750.12441)"
       id="g340">
      <g
         style="fill:#00ff00"
         id="g342"
         clip-path="url(#clipPath344)">
        <path
           d="m 5664.56,6917.74 c -56.02,57.24 -130.98,88.76 -211.08,88.76 -77.63,0 -150.99,-29.91 -206.48,-84.24 l -1271.31,-1244.2 -495.17,483.78 c -55.49,54.23 -128.77,84.09 -206.39,84.09 -80.19,0 -155.19,-31.56 -211.2,-88.88 -55.13,-56.43 -85.02,-130.91 -84.1,-209.79 0.89,-78.89 32.48,-152.68 88.91,-207.82 l 701.67,-685.69 c 55.5,-54.23 128.8,-84.13 206.4,-84.13 77.67,0 151.01,29.95 206.52,84.27 l 1477.7,1446.25 c 56.41,55.16 87.96,128.98 88.8,207.87 0.85,78.86 -29.08,153.35 -84.27,209.73"
           style="fill:#00ff00;fill-opacity:1;fill-rule:nonzero;stroke:none"
           id="path356" />
      </g>
    </g>
  </g>
</svg>
